<svg class="faux code" xmlns="http://www.w3.org/2000/svg" xmlns:xlink="http://www.w3.org/1999/xlink" width="450" height="870" viewBox="0 0 450 870">
  <rect x="0" y="0" width="450" height="870" fill="#24292e" />
  <g class="code block" stroke-linecap="round" stroke-width="5">
    <g class="code line">
      <line x1="47.5" y1="50" x2="82.5" y2="50" stroke="#f97583" />
      <line x1="87.5" y1="50" x2="237.5" y2="50" stroke="#ffab70" />
      <line x1="242.5" y1="50" x2="242.5" y2="50" stroke="#d1d5da" />
    </g>
    <g class="code line">
      <line x1="47.5" y1="70" x2="72.5" y2="70" stroke="#f97583" />
      <line x1="77.5" y1="70" x2="92.5" y2="70" stroke="#b392f0" />
      <line x1="97.5" y1="70" x2="102.5" y2="70" stroke="#d1d5da" />
      <line x1="112.5" y1="70" x2="112.5" y2="70" stroke="#f97583" />
      <line x1="117.5" y1="70" x2="117.5" y2="70" stroke="#f97583" />
      <line x1="127.5" y1="70" x2="152.5" y2="70" stroke="#b392f0" />
      <line x1="157.5" y1="70" x2="157.5" y2="70" stroke="#d1d5da" />
      <line x1="162.5" y1="70" x2="182.5" y2="70" stroke="#79b8ff" />
      <line x1="187.5" y1="70" x2="202.5" y2="70" stroke="#d1d5da" />
    </g>
    <g class="code line">
      <line x1="47.5" y1="90" x2="77.5" y2="90" stroke="#f97583" />
      <line x1="82.5" y1="90" x2="102.5" y2="90" stroke="#79b8ff" />
      <line x1="112.5" y1="90" x2="142.5" y2="90" stroke="#f97583" />
      <line x1="152.5" y1="90" x2="222.5" y2="90" stroke="#79b8ff" />
      <line x1="232.5" y1="90" x2="232.5" y2="90" stroke="#d1d5da" />
    </g>
    <g class="code line">
      <line x1="62.5" y1="100" x2="102.5" y2="100" stroke="#f97583" />
    </g>
    <g class="code line">
      <line x1="62.5" y1="110" x2="87.5" y2="110" stroke="#79b8ff" />
      <line x1="97.5" y1="110" x2="117.5" y2="110" stroke="#b392f0" />
      <line x1="122.5" y1="110" x2="122.5" y2="110" stroke="#d1d5da" />
      <line x1="127.5" y1="110" x2="182.5" y2="110" stroke="#79b8ff" />
      <line x1="192.5" y1="110" x2="227.5" y2="110" stroke="#d1d5da" />
      <line x1="237.5" y1="110" x2="237.5" y2="110" stroke="#d1d5da" />
    </g>
    <g class="code line">
      <line x1="72.5" y1="120" x2="97.5" y2="120" stroke="#f97583" />
      <line x1="107.5" y1="120" x2="157.5" y2="120" stroke="#79b8ff" />
      <line x1="162.5" y1="120" x2="162.5" y2="120" stroke="#d1d5da" />
    </g>
    <g class="code line">
      <line x1="92.5" y1="130" x2="112.5" y2="130" stroke="#d1d5da" />
      <line x1="117.5" y1="130" x2="117.5" y2="130" stroke="#f97583" />
      <line x1="127.5" y1="130" x2="162.5" y2="130" stroke="#ffab70" />
      <line x1="172.5" y1="130" x2="177.5" y2="130" stroke="#ffab70" />
      <line x1="187.5" y1="130" x2="222.5" y2="130" stroke="#ffab70" />
      <line x1="227.5" y1="130" x2="227.5" y2="130" stroke="#d1d5da" />
    </g>
    <g class="code line">
      <line x1="92.5" y1="140" x2="107.5" y2="140" stroke="#d1d5da" />
      <line x1="112.5" y1="140" x2="112.5" y2="140" stroke="#f97583" />
      <line x1="122.5" y1="140" x2="157.5" y2="140" stroke="#79b8ff" />
      <line x1="162.5" y1="140" x2="162.5" y2="140" stroke="#d1d5da" />
    </g>
    <g class="code line">
      <line x1="102.5" y1="150" x2="117.5" y2="150" stroke="#d1d5da" />
      <line x1="122.5" y1="150" x2="122.5" y2="150" stroke="#f97583" />
      <line x1="132.5" y1="150" x2="172.5" y2="150" stroke="#79b8ff" />
      <line x1="177.5" y1="150" x2="187.5" y2="150" stroke="#d1d5da" />
    </g>
    <g class="code line">
      <line x1="92.5" y1="160" x2="102.5" y2="160" stroke="#d1d5da" />
    </g>
    <g class="code line">
      <line x1="62.5" y1="170" x2="62.5" y2="170" stroke="#d1d5da" />
    </g>
    <g class="code line">
      <line x1="47.5" y1="180" x2="57.5" y2="180" stroke="#d1d5da" />
    </g>
    <g class="code line">
      <line x1="47.5" y1="200" x2="77.5" y2="200" stroke="#f97583" />
      <line x1="82.5" y1="200" x2="122.5" y2="200" stroke="#79b8ff" />
      <line x1="132.5" y1="200" x2="162.5" y2="200" stroke="#f97583" />
      <line x1="172.5" y1="200" x2="242.5" y2="200" stroke="#79b8ff" />
      <line x1="252.5" y1="200" x2="252.5" y2="200" stroke="#d1d5da" />
    </g>
    <g class="code line">
      <line x1="62.5" y1="210" x2="87.5" y2="210" stroke="#79b8ff" />
      <line x1="97.5" y1="210" x2="117.5" y2="210" stroke="#b392f0" />
      <line x1="122.5" y1="210" x2="122.5" y2="210" stroke="#d1d5da" />
      <line x1="127.5" y1="210" x2="182.5" y2="210" stroke="#79b8ff" />
      <line x1="192.5" y1="210" x2="227.5" y2="210" stroke="#d1d5da" />
      <line x1="237.5" y1="210" x2="237.5" y2="210" stroke="#d1d5da" />
    </g>
    <g class="code line">
      <line x1="72.5" y1="220" x2="97.5" y2="220" stroke="#f97583" />
      <line x1="107.5" y1="220" x2="132.5" y2="220" stroke="#79b8ff" />
      <line x1="137.5" y1="220" x2="137.5" y2="220" stroke="#d1d5da" />
    </g>
    <g class="code line">
      <line x1="82.5" y1="230" x2="117.5" y2="230" stroke="#d1d5da" />
      <line x1="122.5" y1="230" x2="122.5" y2="230" stroke="#f97583" />
      <line x1="132.5" y1="230" x2="132.5" y2="230" stroke="#d1d5da" />
    </g>
    <g class="code line">
      <line x1="92.5" y1="240" x2="102.5" y2="240" stroke="#79b8ff" />
      <line x1="107.5" y1="240" x2="147.5" y2="240" stroke="#d1d5da" />
      <line x1="152.5" y1="240" x2="152.5" y2="240" stroke="#f97583" />
      <line x1="162.5" y1="240" x2="162.5" y2="240" stroke="#d1d5da" />
    </g>
    <g class="code line">
      <line x1="102.5" y1="250" x2="137.5" y2="250" stroke="#79b8ff" />
      <line x1="142.5" y1="250" x2="142.5" y2="250" stroke="#d1d5da" />
    </g>
    <g class="code line">
      <line x1="122.5" y1="260" x2="142.5" y2="260" stroke="#d1d5da" />
      <line x1="147.5" y1="260" x2="147.5" y2="260" stroke="#f97583" />
      <line x1="157.5" y1="260" x2="187.5" y2="260" stroke="#79b8ff" />
      <line x1="192.5" y1="260" x2="192.5" y2="260" stroke="#d1d5da" />
    </g>
    <g class="code line">
      <line x1="112.5" y1="270" x2="142.5" y2="270" stroke="#d1d5da" />
      <line x1="147.5" y1="270" x2="147.5" y2="270" stroke="#f97583" />
      <line x1="157.5" y1="270" x2="202.5" y2="270" stroke="#79b8ff" />
      <line x1="207.5" y1="270" x2="207.5" y2="270" stroke="#d1d5da" />
      <line x1="212.5" y1="270" x2="247.5" y2="270" stroke="#b392f0" />
      <line x1="252.5" y1="270" x2="252.5" y2="270" stroke="#d1d5da" />
      <line x1="257.5" y1="270" x2="257.5" y2="270" stroke="#79b8ff" />
      <line x1="262.5" y1="270" x2="262.5" y2="270" stroke="#d1d5da" />
      <line x1="272.5" y1="270" x2="272.5" y2="270" stroke="#79b8ff" />
      <line x1="277.5" y1="270" x2="277.5" y2="270" stroke="#d1d5da" />
      <line x1="287.5" y1="270" x2="287.5" y2="270" stroke="#79b8ff" />
      <line x1="292.5" y1="270" x2="292.5" y2="270" stroke="#d1d5da" />
      <line x1="302.5" y1="270" x2="302.5" y2="270" stroke="#79b8ff" />
      <line x1="307.5" y1="270" x2="312.5" y2="270" stroke="#d1d5da" />
    </g>
    <g class="code line">
      <line x1="112.5" y1="280" x2="132.5" y2="280" stroke="#d1d5da" />
      <line x1="137.5" y1="280" x2="137.5" y2="280" stroke="#f97583" />
      <line x1="147.5" y1="280" x2="187.5" y2="280" stroke="#79b8ff" />
      <line x1="192.5" y1="280" x2="192.5" y2="280" stroke="#d1d5da" />
    </g>
    <g class="code line">
      <line x1="122.5" y1="290" x2="147.5" y2="290" stroke="#d1d5da" />
      <line x1="152.5" y1="290" x2="152.5" y2="290" stroke="#f97583" />
      <line x1="162.5" y1="290" x2="207.5" y2="290" stroke="#79b8ff" />
      <line x1="212.5" y1="290" x2="212.5" y2="290" stroke="#d1d5da" />
      <line x1="217.5" y1="290" x2="222.5" y2="290" stroke="#b392f0" />
      <line x1="227.5" y1="290" x2="327.5" y2="290" stroke="#d1d5da" />
      <line x1="337.5" y1="290" x2="337.5" y2="290" stroke="#f97583" />
      <line x1="347.5" y1="290" x2="362.5" y2="290" stroke="#79b8ff" />
      <line x1="367.5" y1="290" x2="367.5" y2="290" stroke="#d1d5da" />
    </g>
    <g class="code line">
      <line x1="122.5" y1="300" x2="142.5" y2="300" stroke="#d1d5da" />
      <line x1="147.5" y1="300" x2="147.5" y2="300" stroke="#f97583" />
      <line x1="157.5" y1="300" x2="182.5" y2="300" stroke="#79b8ff" />
      <line x1="187.5" y1="300" x2="222.5" y2="300" stroke="#d1d5da" />
    </g>
    <g class="code line">
      <line x1="112.5" y1="310" x2="117.5" y2="310" stroke="#d1d5da" />
    </g>
    <g class="code line">
      <line x1="102.5" y1="320" x2="112.5" y2="320" stroke="#d1d5da" />
    </g>
    <g class="code line">
      <line x1="92.5" y1="330" x2="102.5" y2="330" stroke="#d1d5da" />
    </g>
    <g class="code line">
      <line x1="92.5" y1="340" x2="102.5" y2="340" stroke="#79b8ff" />
      <line x1="107.5" y1="340" x2="147.5" y2="340" stroke="#d1d5da" />
      <line x1="152.5" y1="340" x2="152.5" y2="340" stroke="#f97583" />
      <line x1="162.5" y1="340" x2="162.5" y2="340" stroke="#d1d5da" />
    </g>
    <g class="code line">
      <line x1="102.5" y1="350" x2="142.5" y2="350" stroke="#79b8ff" />
      <line x1="147.5" y1="350" x2="147.5" y2="350" stroke="#d1d5da" />
    </g>
    <g class="code line">
      <line x1="112.5" y1="360" x2="137.5" y2="360" stroke="#d1d5da" />
      <line x1="142.5" y1="360" x2="142.5" y2="360" stroke="#f97583" />
      <line x1="152.5" y1="360" x2="197.5" y2="360" stroke="#79b8ff" />
      <line x1="202.5" y1="360" x2="202.5" y2="360" stroke="#d1d5da" />
      <line x1="207.5" y1="360" x2="212.5" y2="360" stroke="#b392f0" />
      <line x1="217.5" y1="360" x2="317.5" y2="360" stroke="#d1d5da" />
      <line x1="327.5" y1="360" x2="327.5" y2="360" stroke="#f97583" />
      <line x1="337.5" y1="360" x2="352.5" y2="360" stroke="#79b8ff" />
      <line x1="357.5" y1="360" x2="357.5" y2="360" stroke="#d1d5da" />
    </g>
    <g class="code line">
      <line x1="112.5" y1="370" x2="132.5" y2="370" stroke="#d1d5da" />
      <line x1="137.5" y1="370" x2="137.5" y2="370" stroke="#f97583" />
      <line x1="147.5" y1="370" x2="192.5" y2="370" stroke="#79b8ff" />
      <line x1="197.5" y1="370" x2="197.5" y2="370" stroke="#d1d5da" />
      <line x1="202.5" y1="370" x2="207.5" y2="370" stroke="#b392f0" />
      <line x1="212.5" y1="370" x2="307.5" y2="370" stroke="#d1d5da" />
      <line x1="317.5" y1="370" x2="317.5" y2="370" stroke="#f97583" />
      <line x1="327.5" y1="370" x2="342.5" y2="370" stroke="#79b8ff" />
      <line x1="347.5" y1="370" x2="347.5" y2="370" stroke="#d1d5da" />
    </g>
    <g class="code line">
      <line x1="112.5" y1="380" x2="132.5" y2="380" stroke="#d1d5da" />
      <line x1="137.5" y1="380" x2="137.5" y2="380" stroke="#f97583" />
      <line x1="147.5" y1="380" x2="172.5" y2="380" stroke="#79b8ff" />
      <line x1="177.5" y1="380" x2="212.5" y2="380" stroke="#d1d5da" />
    </g>
    <g class="code line">
      <line x1="102.5" y1="390" x2="107.5" y2="390" stroke="#d1d5da" />
    </g>
    <g class="code line">
      <line x1="102.5" y1="400" x2="142.5" y2="400" stroke="#79b8ff" />
      <line x1="147.5" y1="400" x2="147.5" y2="400" stroke="#d1d5da" />
    </g>
    <g class="code line">
      <line x1="112.5" y1="410" x2="137.5" y2="410" stroke="#d1d5da" />
      <line x1="142.5" y1="410" x2="142.5" y2="410" stroke="#f97583" />
      <line x1="152.5" y1="410" x2="197.5" y2="410" stroke="#79b8ff" />
      <line x1="202.5" y1="410" x2="202.5" y2="410" stroke="#d1d5da" />
      <line x1="207.5" y1="410" x2="212.5" y2="410" stroke="#b392f0" />
      <line x1="217.5" y1="410" x2="317.5" y2="410" stroke="#d1d5da" />
      <line x1="327.5" y1="410" x2="327.5" y2="410" stroke="#f97583" />
      <line x1="337.5" y1="410" x2="352.5" y2="410" stroke="#79b8ff" />
      <line x1="357.5" y1="410" x2="357.5" y2="410" stroke="#d1d5da" />
    </g>
    <g class="code line">
      <line x1="112.5" y1="420" x2="132.5" y2="420" stroke="#d1d5da" />
      <line x1="137.5" y1="420" x2="137.5" y2="420" stroke="#f97583" />
      <line x1="147.5" y1="420" x2="192.5" y2="420" stroke="#79b8ff" />
      <line x1="197.5" y1="420" x2="197.5" y2="420" stroke="#d1d5da" />
      <line x1="202.5" y1="420" x2="207.5" y2="420" stroke="#b392f0" />
      <line x1="212.5" y1="420" x2="307.5" y2="420" stroke="#d1d5da" />
      <line x1="317.5" y1="420" x2="317.5" y2="420" stroke="#f97583" />
      <line x1="327.5" y1="420" x2="337.5" y2="420" stroke="#79b8ff" />
      <line x1="342.5" y1="420" x2="342.5" y2="420" stroke="#d1d5da" />
    </g>
    <g class="code line">
      <line x1="112.5" y1="430" x2="132.5" y2="430" stroke="#d1d5da" />
      <line x1="137.5" y1="430" x2="137.5" y2="430" stroke="#f97583" />
      <line x1="147.5" y1="430" x2="172.5" y2="430" stroke="#79b8ff" />
      <line x1="177.5" y1="430" x2="197.5" y2="430" stroke="#d1d5da" />
    </g>
    <g class="code line">
      <line x1="102.5" y1="440" x2="107.5" y2="440" stroke="#d1d5da" />
    </g>
    <g class="code line">
      <line x1="102.5" y1="450" x2="142.5" y2="450" stroke="#79b8ff" />
      <line x1="147.5" y1="450" x2="147.5" y2="450" stroke="#d1d5da" />
    </g>
    <g class="code line">
      <line x1="112.5" y1="460" x2="137.5" y2="460" stroke="#d1d5da" />
      <line x1="142.5" y1="460" x2="142.5" y2="460" stroke="#f97583" />
      <line x1="152.5" y1="460" x2="197.5" y2="460" stroke="#79b8ff" />
      <line x1="202.5" y1="460" x2="202.5" y2="460" stroke="#d1d5da" />
      <line x1="207.5" y1="460" x2="212.5" y2="460" stroke="#b392f0" />
      <line x1="217.5" y1="460" x2="317.5" y2="460" stroke="#d1d5da" />
      <line x1="327.5" y1="460" x2="327.5" y2="460" stroke="#f97583" />
      <line x1="337.5" y1="460" x2="352.5" y2="460" stroke="#79b8ff" />
      <line x1="357.5" y1="460" x2="357.5" y2="460" stroke="#d1d5da" />
    </g>
    <g class="code line">
      <line x1="112.5" y1="470" x2="132.5" y2="470" stroke="#d1d5da" />
      <line x1="137.5" y1="470" x2="137.5" y2="470" stroke="#f97583" />
      <line x1="147.5" y1="470" x2="192.5" y2="470" stroke="#79b8ff" />
      <line x1="197.5" y1="470" x2="197.5" y2="470" stroke="#d1d5da" />
      <line x1="202.5" y1="470" x2="207.5" y2="470" stroke="#b392f0" />
      <line x1="212.5" y1="470" x2="307.5" y2="470" stroke="#d1d5da" />
      <line x1="317.5" y1="470" x2="317.5" y2="470" stroke="#f97583" />
      <line x1="327.5" y1="470" x2="342.5" y2="470" stroke="#79b8ff" />
      <line x1="347.5" y1="470" x2="347.5" y2="470" stroke="#d1d5da" />
    </g>
    <g class="code line">
      <line x1="112.5" y1="480" x2="132.5" y2="480" stroke="#d1d5da" />
      <line x1="137.5" y1="480" x2="137.5" y2="480" stroke="#f97583" />
      <line x1="147.5" y1="480" x2="172.5" y2="480" stroke="#79b8ff" />
      <line x1="177.5" y1="480" x2="212.5" y2="480" stroke="#d1d5da" />
    </g>
    <g class="code line">
      <line x1="102.5" y1="490" x2="102.5" y2="490" stroke="#d1d5da" />
    </g>
    <g class="code line">
      <line x1="92.5" y1="500" x2="102.5" y2="500" stroke="#d1d5da" />
    </g>
    <g class="code line">
      <line x1="92.5" y1="510" x2="102.5" y2="510" stroke="#79b8ff" />
      <line x1="107.5" y1="510" x2="147.5" y2="510" stroke="#d1d5da" />
      <line x1="152.5" y1="510" x2="152.5" y2="510" stroke="#f97583" />
      <line x1="162.5" y1="510" x2="162.5" y2="510" stroke="#d1d5da" />
    </g>
    <g class="code line">
      <line x1="102.5" y1="520" x2="137.5" y2="520" stroke="#79b8ff" />
      <line x1="142.5" y1="520" x2="142.5" y2="520" stroke="#d1d5da" />
    </g>
    <g class="code line">
      <line x1="122.5" y1="530" x2="142.5" y2="530" stroke="#d1d5da" />
      <line x1="147.5" y1="530" x2="147.5" y2="530" stroke="#f97583" />
      <line x1="157.5" y1="530" x2="187.5" y2="530" stroke="#79b8ff" />
      <line x1="192.5" y1="530" x2="192.5" y2="530" stroke="#d1d5da" />
    </g>
    <g class="code line">
      <line x1="142.5" y1="540" x2="172.5" y2="540" stroke="#d1d5da" />
      <line x1="177.5" y1="540" x2="177.5" y2="540" stroke="#f97583" />
      <line x1="187.5" y1="540" x2="232.5" y2="540" stroke="#79b8ff" />
      <line x1="237.5" y1="540" x2="237.5" y2="540" stroke="#d1d5da" />
      <line x1="242.5" y1="540" x2="277.5" y2="540" stroke="#b392f0" />
      <line x1="282.5" y1="540" x2="282.5" y2="540" stroke="#d1d5da" />
      <line x1="287.5" y1="540" x2="287.5" y2="540" stroke="#79b8ff" />
      <line x1="292.5" y1="540" x2="292.5" y2="540" stroke="#d1d5da" />
      <line x1="302.5" y1="540" x2="302.5" y2="540" stroke="#79b8ff" />
      <line x1="307.5" y1="540" x2="307.5" y2="540" stroke="#d1d5da" />
      <line x1="317.5" y1="540" x2="317.5" y2="540" stroke="#79b8ff" />
      <line x1="322.5" y1="540" x2="322.5" y2="540" stroke="#d1d5da" />
      <line x1="332.5" y1="540" x2="332.5" y2="540" stroke="#79b8ff" />
      <line x1="337.5" y1="540" x2="342.5" y2="540" stroke="#d1d5da" />
    </g>
    <g class="code line">
      <line x1="142.5" y1="550" x2="162.5" y2="550" stroke="#d1d5da" />
      <line x1="167.5" y1="550" x2="167.5" y2="550" stroke="#f97583" />
      <line x1="177.5" y1="550" x2="217.5" y2="550" stroke="#79b8ff" />
      <line x1="222.5" y1="550" x2="222.5" y2="550" stroke="#d1d5da" />
    </g>
    <g class="code line">
      <line x1="152.5" y1="560" x2="177.5" y2="560" stroke="#d1d5da" />
      <line x1="182.5" y1="560" x2="182.5" y2="560" stroke="#f97583" />
      <line x1="192.5" y1="560" x2="237.5" y2="560" stroke="#79b8ff" />
      <line x1="242.5" y1="560" x2="242.5" y2="560" stroke="#d1d5da" />
      <line x1="247.5" y1="560" x2="252.5" y2="560" stroke="#b392f0" />
      <line x1="257.5" y1="560" x2="357.5" y2="560" stroke="#d1d5da" />
      <line x1="367.5" y1="560" x2="367.5" y2="560" stroke="#f97583" />
      <line x1="377.5" y1="560" x2="392.5" y2="560" stroke="#79b8ff" />
      <line x1="397.5" y1="560" x2="397.5" y2="560" stroke="#d1d5da" />
    </g>
    <g class="code line">
      <line x1="152.5" y1="570" x2="172.5" y2="570" stroke="#d1d5da" />
      <line x1="177.5" y1="570" x2="177.5" y2="570" stroke="#f97583" />
      <line x1="187.5" y1="570" x2="212.5" y2="570" stroke="#79b8ff" />
      <line x1="217.5" y1="570" x2="252.5" y2="570" stroke="#d1d5da" />
    </g>
    <g class="code line">
      <line x1="142.5" y1="580" x2="142.5" y2="580" stroke="#d1d5da" />
    </g>
    <g class="code line">
      <line x1="142.5" y1="590" x2="157.5" y2="590" stroke="#959da5" />
    </g>
    <g class="code line">
      <line x1="142.5" y1="600" x2="147.5" y2="600" stroke="#d1d5da" />
    </g>
    <g class="code line">
      <line x1="92.5" y1="610" x2="102.5" y2="610" stroke="#d1d5da" />
    </g>
    <g class="code line">
      <line x1="92.5" y1="620" x2="102.5" y2="620" stroke="#79b8ff" />
      <line x1="107.5" y1="620" x2="147.5" y2="620" stroke="#d1d5da" />
      <line x1="152.5" y1="620" x2="152.5" y2="620" stroke="#f97583" />
      <line x1="162.5" y1="620" x2="162.5" y2="620" stroke="#d1d5da" />
    </g>
    <g class="code line">
      <line x1="102.5" y1="630" x2="137.5" y2="630" stroke="#79b8ff" />
      <line x1="142.5" y1="630" x2="142.5" y2="630" stroke="#d1d5da" />
    </g>
    <g class="code line">
      <line x1="112.5" y1="640" x2="132.5" y2="640" stroke="#d1d5da" />
      <line x1="137.5" y1="640" x2="137.5" y2="640" stroke="#f97583" />
      <line x1="147.5" y1="640" x2="177.5" y2="640" stroke="#79b8ff" />
      <line x1="182.5" y1="640" x2="182.5" y2="640" stroke="#d1d5da" />
    </g>
    <g class="code line">
      <line x1="132.5" y1="650" x2="162.5" y2="650" stroke="#d1d5da" />
      <line x1="167.5" y1="650" x2="167.5" y2="650" stroke="#f97583" />
      <line x1="177.5" y1="650" x2="222.5" y2="650" stroke="#79b8ff" />
      <line x1="227.5" y1="650" x2="227.5" y2="650" stroke="#d1d5da" />
      <line x1="232.5" y1="650" x2="267.5" y2="650" stroke="#b392f0" />
      <line x1="272.5" y1="650" x2="272.5" y2="650" stroke="#d1d5da" />
      <line x1="277.5" y1="650" x2="277.5" y2="650" stroke="#79b8ff" />
      <line x1="282.5" y1="650" x2="282.5" y2="650" stroke="#d1d5da" />
      <line x1="292.5" y1="650" x2="292.5" y2="650" stroke="#79b8ff" />
      <line x1="297.5" y1="650" x2="297.5" y2="650" stroke="#d1d5da" />
      <line x1="307.5" y1="650" x2="307.5" y2="650" stroke="#79b8ff" />
      <line x1="312.5" y1="650" x2="312.5" y2="650" stroke="#d1d5da" />
      <line x1="322.5" y1="650" x2="322.5" y2="650" stroke="#79b8ff" />
      <line x1="327.5" y1="650" x2="332.5" y2="650" stroke="#d1d5da" />
    </g>
    <g class="code line">
      <line x1="132.5" y1="660" x2="152.5" y2="660" stroke="#d1d5da" />
      <line x1="157.5" y1="660" x2="157.5" y2="660" stroke="#f97583" />
      <line x1="167.5" y1="660" x2="207.5" y2="660" stroke="#79b8ff" />
      <line x1="212.5" y1="660" x2="212.5" y2="660" stroke="#d1d5da" />
    </g>
    <g class="code line">
      <line x1="142.5" y1="670" x2="167.5" y2="670" stroke="#d1d5da" />
      <line x1="172.5" y1="670" x2="172.5" y2="670" stroke="#f97583" />
      <line x1="182.5" y1="670" x2="227.5" y2="670" stroke="#79b8ff" />
      <line x1="232.5" y1="670" x2="232.5" y2="670" stroke="#d1d5da" />
      <line x1="237.5" y1="670" x2="242.5" y2="670" stroke="#b392f0" />
      <line x1="247.5" y1="670" x2="347.5" y2="670" stroke="#d1d5da" />
      <line x1="357.5" y1="670" x2="357.5" y2="670" stroke="#f97583" />
      <line x1="367.5" y1="670" x2="377.5" y2="670" stroke="#79b8ff" />
      <line x1="382.5" y1="670" x2="382.5" y2="670" stroke="#d1d5da" />
    </g>
    <g class="code line">
      <line x1="142.5" y1="680" x2="162.5" y2="680" stroke="#d1d5da" />
      <line x1="167.5" y1="680" x2="167.5" y2="680" stroke="#f97583" />
      <line x1="177.5" y1="680" x2="202.5" y2="680" stroke="#79b8ff" />
      <line x1="207.5" y1="680" x2="237.5" y2="680" stroke="#d1d5da" />
    </g>
    <g class="code line">
      <line x1="132.5" y1="690" x2="142.5" y2="690" stroke="#d1d5da" />
    </g>
    <g class="code line">
      <line x1="102.5" y1="700" x2="107.5" y2="700" stroke="#d1d5da" />
    </g>
    <g class="code line">
      <line x1="102.5" y1="710" x2="137.5" y2="710" stroke="#79b8ff" />
      <line x1="142.5" y1="710" x2="142.5" y2="710" stroke="#d1d5da" />
    </g>
    <g class="code line">
      <line x1="122.5" y1="720" x2="142.5" y2="720" stroke="#d1d5da" />
      <line x1="147.5" y1="720" x2="147.5" y2="720" stroke="#f97583" />
      <line x1="157.5" y1="720" x2="187.5" y2="720" stroke="#79b8ff" />
      <line x1="192.5" y1="720" x2="192.5" y2="720" stroke="#d1d5da" />
    </g>
    <g class="code line">
      <line x1="142.5" y1="730" x2="172.5" y2="730" stroke="#d1d5da" />
      <line x1="177.5" y1="730" x2="177.5" y2="730" stroke="#f97583" />
      <line x1="187.5" y1="730" x2="232.5" y2="730" stroke="#79b8ff" />
      <line x1="237.5" y1="730" x2="237.5" y2="730" stroke="#d1d5da" />
      <line x1="242.5" y1="730" x2="277.5" y2="730" stroke="#b392f0" />
      <line x1="282.5" y1="730" x2="282.5" y2="730" stroke="#d1d5da" />
      <line x1="287.5" y1="730" x2="287.5" y2="730" stroke="#79b8ff" />
      <line x1="292.5" y1="730" x2="292.5" y2="730" stroke="#d1d5da" />
      <line x1="302.5" y1="730" x2="302.5" y2="730" stroke="#79b8ff" />
      <line x1="307.5" y1="730" x2="307.5" y2="730" stroke="#d1d5da" />
      <line x1="317.5" y1="730" x2="317.5" y2="730" stroke="#79b8ff" />
      <line x1="322.5" y1="730" x2="322.5" y2="730" stroke="#d1d5da" />
      <line x1="332.5" y1="730" x2="332.5" y2="730" stroke="#79b8ff" />
      <line x1="337.5" y1="730" x2="342.5" y2="730" stroke="#d1d5da" />
    </g>
    <g class="code line">
      <line x1="142.5" y1="740" x2="162.5" y2="740" stroke="#d1d5da" />
      <line x1="167.5" y1="740" x2="167.5" y2="740" stroke="#f97583" />
      <line x1="177.5" y1="740" x2="217.5" y2="740" stroke="#79b8ff" />
      <line x1="222.5" y1="740" x2="222.5" y2="740" stroke="#d1d5da" />
    </g>
    <g class="code line">
      <line x1="152.5" y1="750" x2="177.5" y2="750" stroke="#d1d5da" />
      <line x1="182.5" y1="750" x2="182.5" y2="750" stroke="#f97583" />
      <line x1="192.5" y1="750" x2="237.5" y2="750" stroke="#79b8ff" />
      <line x1="242.5" y1="750" x2="242.5" y2="750" stroke="#d1d5da" />
      <line x1="247.5" y1="750" x2="252.5" y2="750" stroke="#b392f0" />
      <line x1="257.5" y1="750" x2="357.5" y2="750" stroke="#d1d5da" />
      <line x1="367.5" y1="750" x2="367.5" y2="750" stroke="#f97583" />
      <line x1="377.5" y1="750" x2="387.5" y2="750" stroke="#79b8ff" />
      <line x1="392.5" y1="750" x2="392.5" y2="750" stroke="#d1d5da" />
    </g>
    <g class="code line">
      <line x1="152.5" y1="760" x2="172.5" y2="760" stroke="#d1d5da" />
      <line x1="177.5" y1="760" x2="177.5" y2="760" stroke="#f97583" />
      <line x1="187.5" y1="760" x2="212.5" y2="760" stroke="#79b8ff" />
      <line x1="217.5" y1="760" x2="247.5" y2="760" stroke="#d1d5da" />
    </g>
    <g class="code line">
      <line x1="142.5" y1="770" x2="152.5" y2="770" stroke="#d1d5da" />
    </g>
    <g class="code line">
      <line x1="92.5" y1="780" x2="97.5" y2="780" stroke="#d1d5da" />
    </g>
    <g class="code line">
      <line x1="82.5" y1="790" x2="87.5" y2="790" stroke="#d1d5da" />
    </g>
    <g class="code line">
      <line x1="72.5" y1="800" x2="77.5" y2="800" stroke="#d1d5da" />
    </g>
    <g class="code line">
      <line x1="62.5" y1="810" x2="62.5" y2="810" stroke="#d1d5da" />
    </g>
    <g class="code line">
      <line x1="47.5" y1="820" x2="57.5" y2="820" stroke="#d1d5da" />
    </g>
  </g>  <g class="line numbers" stroke="#959da5" stroke-linecap="round" stroke-width="5">
      <line x1="32.5" y1="50" x2="32.5" y2="50" />
      <line x1="32.5" y1="60" x2="32.5" y2="60" />
      <line x1="32.5" y1="70" x2="32.5" y2="70" />
      <line x1="32.5" y1="80" x2="32.5" y2="80" />
      <line x1="32.5" y1="90" x2="32.5" y2="90" />
      <line x1="32.5" y1="100" x2="32.5" y2="100" />
      <line x1="32.5" y1="110" x2="32.5" y2="110" />
      <line x1="32.5" y1="120" x2="32.5" y2="120" />
      <line x1="32.5" y1="130" x2="32.5" y2="130" />
      <line x1="32.5" y1="140" x2="27.5" y2="140" />
      <line x1="32.5" y1="150" x2="27.5" y2="150" />
      <line x1="32.5" y1="160" x2="27.5" y2="160" />
      <line x1="32.5" y1="170" x2="27.5" y2="170" />
      <line x1="32.5" y1="180" x2="27.5" y2="180" />
      <line x1="32.5" y1="190" x2="27.5" y2="190" />
      <line x1="32.5" y1="200" x2="27.5" y2="200" />
      <line x1="32.5" y1="210" x2="27.5" y2="210" />
      <line x1="32.5" y1="220" x2="27.5" y2="220" />
      <line x1="32.5" y1="230" x2="27.5" y2="230" />
      <line x1="32.5" y1="240" x2="27.5" y2="240" />
      <line x1="32.5" y1="250" x2="27.5" y2="250" />
      <line x1="32.5" y1="260" x2="27.5" y2="260" />
      <line x1="32.5" y1="270" x2="27.5" y2="270" />
      <line x1="32.5" y1="280" x2="27.5" y2="280" />
      <line x1="32.5" y1="290" x2="27.5" y2="290" />
      <line x1="32.5" y1="300" x2="27.5" y2="300" />
      <line x1="32.5" y1="310" x2="27.5" y2="310" />
      <line x1="32.5" y1="320" x2="27.5" y2="320" />
      <line x1="32.5" y1="330" x2="27.5" y2="330" />
      <line x1="32.5" y1="340" x2="27.5" y2="340" />
      <line x1="32.5" y1="350" x2="27.5" y2="350" />
      <line x1="32.5" y1="360" x2="27.5" y2="360" />
      <line x1="32.5" y1="370" x2="27.5" y2="370" />
      <line x1="32.5" y1="380" x2="27.5" y2="380" />
      <line x1="32.5" y1="390" x2="27.5" y2="390" />
      <line x1="32.5" y1="400" x2="27.5" y2="400" />
      <line x1="32.5" y1="410" x2="27.5" y2="410" />
      <line x1="32.5" y1="420" x2="27.5" y2="420" />
      <line x1="32.5" y1="430" x2="27.5" y2="430" />
      <line x1="32.5" y1="440" x2="27.5" y2="440" />
      <line x1="32.5" y1="450" x2="27.5" y2="450" />
      <line x1="32.5" y1="460" x2="27.5" y2="460" />
      <line x1="32.5" y1="470" x2="27.5" y2="470" />
      <line x1="32.5" y1="480" x2="27.5" y2="480" />
      <line x1="32.5" y1="490" x2="27.5" y2="490" />
      <line x1="32.5" y1="500" x2="27.5" y2="500" />
      <line x1="32.5" y1="510" x2="27.5" y2="510" />
      <line x1="32.5" y1="520" x2="27.5" y2="520" />
      <line x1="32.5" y1="530" x2="27.5" y2="530" />
      <line x1="32.5" y1="540" x2="27.5" y2="540" />
      <line x1="32.5" y1="550" x2="27.5" y2="550" />
      <line x1="32.5" y1="560" x2="27.5" y2="560" />
      <line x1="32.5" y1="570" x2="27.5" y2="570" />
      <line x1="32.5" y1="580" x2="27.5" y2="580" />
      <line x1="32.5" y1="590" x2="27.5" y2="590" />
      <line x1="32.5" y1="600" x2="27.5" y2="600" />
      <line x1="32.5" y1="610" x2="27.5" y2="610" />
      <line x1="32.5" y1="620" x2="27.5" y2="620" />
      <line x1="32.5" y1="630" x2="27.5" y2="630" />
      <line x1="32.5" y1="640" x2="27.5" y2="640" />
      <line x1="32.5" y1="650" x2="27.5" y2="650" />
      <line x1="32.5" y1="660" x2="27.5" y2="660" />
      <line x1="32.5" y1="670" x2="27.5" y2="670" />
      <line x1="32.5" y1="680" x2="27.5" y2="680" />
      <line x1="32.5" y1="690" x2="27.5" y2="690" />
      <line x1="32.5" y1="700" x2="27.5" y2="700" />
      <line x1="32.5" y1="710" x2="27.5" y2="710" />
      <line x1="32.5" y1="720" x2="27.5" y2="720" />
      <line x1="32.5" y1="730" x2="27.5" y2="730" />
      <line x1="32.5" y1="740" x2="27.5" y2="740" />
      <line x1="32.5" y1="750" x2="27.5" y2="750" />
      <line x1="32.5" y1="760" x2="27.5" y2="760" />
      <line x1="32.5" y1="770" x2="27.5" y2="770" />
      <line x1="32.5" y1="780" x2="27.5" y2="780" />
      <line x1="32.5" y1="790" x2="27.5" y2="790" />
      <line x1="32.5" y1="800" x2="27.5" y2="800" />
      <line x1="32.5" y1="810" x2="27.5" y2="810" />
      <line x1="32.5" y1="820" x2="27.5" y2="820" />
  </g>
</svg>